<?xml version="1.0" encoding="iso-8859-1"?>
<!-- Generator: Adobe Illustrator 19.0.0, SVG Export Plug-In . SVG Version: 6.00 Build 0)  -->
<svg version="1.1" id="Layer_1" xmlns="http://www.w3.org/2000/svg" xmlns:xlink="http://www.w3.org/1999/xlink" x="0px" y="0px"
	 viewBox="0 0 512 512" style="enable-background:new 0 0 512 512;" xml:space="preserve">
	<g>
		<path fill="#ff6354" d="M459.965,206.703c-0.466-5.784-1.018-11.383-1.661-16.766c-1.947-16.309-11.726-30.719-26.161-38.544
			c-14.427-7.821-31.829-8.154-46.547-0.89l-0.329,0.162l-94.746,52.049H221.48l-94.424-51.873l-0.651-0.338
			c-14.718-7.264-32.119-6.931-46.547,0.89c-14.435,7.826-24.214,22.235-26.161,38.545c-0.642,5.384-1.194,10.981-1.661,16.766H0
			v98.592h52.035c0.466,5.784,1.018,11.383,1.661,16.766c1.947,16.309,11.726,30.719,26.161,38.544
			c7.506,4.069,15.816,6.112,24.137,6.112c7.671,0,15.35-1.737,22.411-5.221l0.329-0.162l94.746-52.049h69.041l94.424,51.873
			l0.651,0.338c7.061,3.485,14.739,5.221,22.411,5.221c8.32,0,16.63-2.042,24.138-6.112c14.435-7.826,24.214-22.235,26.161-38.545
			c0.642-5.383,1.194-10.981,1.661-16.766H512v-98.592H459.965z M50.366,271.905H33.391v-0.001v-31.81h16.975
			c-0.117,5.196-0.178,10.495-0.178,15.905C50.188,261.41,50.249,266.71,50.366,271.905z M200.499,236.394h-41.764v33.391h41.764
			v12.926l-89.148,48.975c-5.022,2.372-10.683,2.219-15.58-0.435c-4.993-2.708-8.244-7.5-8.919-13.146
			c-2.172-18.202-3.272-39.096-3.272-62.106s1.101-43.905,3.272-62.104c0.673-5.648,3.925-10.439,8.919-13.147
			c4.897-2.656,10.561-2.808,15.58-0.435l89.148,48.975V236.394z M278.109,275.892h-44.22v-39.787h44.22V275.892z M425.148,318.103
			c-0.673,5.648-3.925,10.439-8.919,13.147c-4.897,2.656-10.561,2.807-15.58,0.435l-89.148-48.975v-12.926h41.764v-33.391h-41.764
			v-7.107l89.148-48.975c5.022-2.373,10.683-2.219,15.58,0.435c4.993,2.708,8.244,7.5,8.919,13.146
			c2.172,18.202,3.272,39.096,3.272,62.106S427.32,299.904,425.148,318.103z M478.609,271.904h-16.975
			c0.117-5.196,0.178-10.495,0.178-15.905s-0.061-10.71-0.178-15.905h16.975V271.904z"/>
	</g>
</svg>
